<svg width="16" height="16" viewBox="0 0 16 16"><path fill="rgba(251,67,60,1)" opacity="1" d="M0 4C0 1.79086 1.79086 0 4 0H8V16H4C1.79086 16 0 14.2091 0 12V4Z"/><path fill="rgba(251,67,60,1)" opacity="1" d="M16 4C16 1.79086 14.2091 0 12 0H8V16H12C14.2091 16 16 14.2091 16 12V4Z"/><path fill="rgba(255,255,255,1)" fill-rule="evenodd" clip-rule="evenodd" d="M7.99999 10.6989L10.0759 11.7689C10.1902 11.8279 10.3205 11.8485 10.4474 11.8278C10.7745 11.7744 10.9963 11.466 10.943 11.139L10.5668 8.834L12.2259 7.19036C12.3173 7.09983 12.3772 6.98233 12.3967 6.85519C12.447 6.52766 12.2223 6.22137 11.8947 6.17106L9.58635 5.81655L8.53586 3.7307C8.478 3.61581 8.38475 3.52256 8.26987 3.46471C7.97391 3.31565 7.61316 3.43474 7.46411 3.7307L6.41362 5.81655L4.10524 6.17106C3.97809 6.19059 3.86059 6.25046 3.77006 6.34184C3.53685 6.57726 3.53863 6.95715 3.77405 7.19036L5.43319 8.834L5.05702 11.139C5.0363 11.2659 5.05693 11.3962 5.11587 11.5105C5.26769 11.805 5.62954 11.9207 5.92409 11.7689L7.99999 10.6989V10.6989Z"/></svg>